<?xml version="1.0" standalone="no"?>
<!DOCTYPE svg PUBLIC "-//W3C//DTD SVG 20010904//EN"
 "http://www.w3.org/TR/2001/REC-SVG-20010904/DTD/svg10.dtd">
<svg version="1.0" xmlns="http://www.w3.org/2000/svg"
 width="920.000000pt" height="920.000000pt" viewBox="0 0 920.000000 920.000000"
 preserveAspectRatio="xMidYMid meet">
<metadata>
Created by potrace 1.11, written by Peter Selinger 2001-2013
</metadata>
<g transform="translate(0.000000,920.000000) scale(0.100000,-0.100000)"
fill="#000000" stroke="none">
<path d="M2421 8724 c-132 -35 -246 -129 -301 -247 -89 -189 -49 -394 103
-534 l44 -41 -116 -78 c-355 -240 -690 -550 -965 -893 -744 -929 -1076 -2129
-915 -3311 142 -1046 651 -1991 1449 -2693 259 -227 420 -333 605 -395 213
-72 33 -67 2275 -67 1905 0 2020 1 2100 18 205 44 375 122 542 249 525 401
959 920 1252 1498 360 710 516 1469 466 2265 -85 1342 -805 2585 -1937 3343
l-92 62 55 52 c85 80 144 218 144 337 0 47 -25 144 -52 199 -11 24 -45 70 -75
103 -62 67 -163 123 -252 139 -35 6 -799 10 -2165 9 -1810 0 -2119 -2 -2165
-15z m4370 -249 c91 -64 127 -160 98 -262 -17 -61 -87 -133 -145 -151 -60 -18
-4228 -18 -4288 0 -83 25 -156 126 -156 218 0 88 72 192 150 217 25 8 624 11
2167 10 l2131 -2 43 -30z m-98 -697 c401 -232 845 -617 1145 -995 79 -100 242
-325 242 -335 0 -5 -1566 -8 -3481 -8 -2364 0 -3480 3 -3477 10 2 6 42 65 90
133 341 479 748 859 1253 1169 l110 68 2023 0 2024 0 71 -42z m1619 -1746
c135 -269 234 -535 307 -827 34 -134 76 -356 86 -455 4 -36 9 -73 11 -83 25
-132 25 -771 -1 -928 -2 -13 -6 -46 -10 -74 -5 -44 -36 -231 -51 -309 -14 -79
-88 -351 -123 -455 -177 -528 -456 -1013 -821 -1426 -64 -73 -294 -301 -375
-372 -269 -236 -407 -320 -635 -386 l-75 -21 -2000 -3 c-1949 -2 -2002 -1
-2093 18 -111 23 -223 66 -314 120 -62 36 -278 203 -373 288 -78 71 -313 307
-377 381 -388 446 -680 981 -843 1544 -37 130 -75 286 -91 376 -21 117 -31
181 -40 255 -3 33 -8 69 -10 79 -25 138 -25 771 0 902 2 10 7 48 11 84 11 104
53 323 90 475 70 280 159 522 298 808 l90 187 3626 -2 3626 -3 87 -173z"/>
<path d="M4719 4596 c-2 -2 -44 -7 -94 -11 -49 -4 -92 -8 -95 -10 -3 -2 -27
-6 -55 -9 -391 -52 -977 -282 -1338 -525 l-72 -48 -80 30 c-100 36 -283 83
-361 92 -32 4 -68 9 -79 12 -11 3 -147 7 -303 10 l-283 6 14 -34 c7 -19 80
-201 161 -404 l148 -370 -142 -355 c-78 -195 -151 -377 -161 -404 l-20 -48
283 5 c297 5 361 12 555 63 52 13 135 40 184 59 l89 34 77 -50 c102 -66 304
-176 431 -235 l102 -47 0 -284 0 -283 23 5 c12 2 92 19 177 36 235 47 452 127
622 231 l57 34 88 -12 c211 -28 483 -12 698 42 467 118 877 422 1165 864 60
92 180 325 180 349 0 58 -229 401 -374 560 -362 396 -730 606 -1206 686 -40 7
-385 16 -391 11z m441 -250 c335 -68 665 -262 935 -547 124 -131 255 -304 330
-435 l18 -32 -41 -75 c-263 -488 -695 -821 -1202 -928 -143 -30 -425 -35 -588
-10 l-113 17 -61 -43 c-113 -78 -365 -189 -495 -217 l-33 -8 -2 222 -3 221
-95 40 c-217 90 -520 257 -657 360 -29 21 -57 39 -63 39 -6 0 -36 -13 -68 -29
-126 -63 -323 -122 -495 -146 -92 -13 -227 -20 -227 -12 0 2 50 127 111 278
61 151 111 283 111 294 0 11 -48 139 -107 285 -59 146 -109 271 -112 278 -6
15 84 16 212 2 182 -21 339 -64 487 -132 l86 -40 85 60 c428 304 981 515 1507
575 90 10 399 -1 480 -17z"/>
<path d="M5232 3671 c-53 -14 -109 -57 -139 -108 -57 -98 -26 -238 65 -297
117 -76 261 -45 328 70 23 39 28 60 28 114 1 57 -3 73 -29 116 -52 84 -159
128 -253 105z"/>
</g>
</svg>
